<svg xmlns="http://www.w3.org/2000/svg" width="24" height="24" viewBox="0 0 24 24">
    <g>
        <path d="M11.215.014c-.052.005-.216.021-.363.033C7.446.354 4.256 2.19 2.236 5.016 1.11 6.586.39 8.367.12 10.254c-.097.659-.108.853-.108 1.746s.011 1.088.108 1.746c.651 4.502 3.855 8.285 8.2 9.687.778.25 1.599.422 2.532.525.363.04 1.933.04 2.296 0 1.61-.178 2.975-.577 4.32-1.263.206-.106.246-.134.218-.157-.019-.015-.898-1.193-1.952-2.618l-1.918-2.59-2.402-3.556c-1.322-1.954-2.41-3.553-2.419-3.553-.01-.002-.018 1.577-.023 3.506-.007 3.378-.01 3.514-.052 3.593-.06.115-.107.162-.206.214-.075.037-.14.044-.494.044h-.406l-.108-.068c-.07-.044-.122-.103-.157-.17l-.049-.106.005-4.7.007-4.701.072-.092c.038-.049.118-.112.174-.143.096-.046.133-.051.539-.051.478 0 .558.019.682.155.035.037 1.336 1.996 2.892 4.357 1.556 2.36 3.684 5.582 4.73 7.164l1.898 2.876.096-.063c.851-.553 1.751-1.34 2.464-2.161 1.516-1.741 2.493-3.865 2.821-6.129.097-.659.108-.853.108-1.746s-.011-1.088-.108-1.746c-.651-4.502-3.855-8.285-8.2-9.687-.767-.248-1.582-.42-2.496-.522-.225-.024-1.775-.05-1.97-.03zm4.908 7.252c.112.056.204.164.236.276.02.061.024 1.364.02 4.301l-.008 4.214-.743-1.139-.745-1.14v-3.062c0-1.98.01-3.094.023-3.148.038-.131.12-.234.232-.295.096-.05.132-.054.5-.054.346 0 .407.004.485.047z"/>
        <path d="M18.382 22.15c-.082.052-.108.088-.035.048.051-.03.136-.094.122-.096-.007 0-.047.023-.087.049zm-.159.127c-.046.052-.046.056.01.015.031-.022.057-.048.057-.055 0-.03-.013-.023-.067.04zm-.117.07c-.046.053-.046.056.01.016.031-.023.057-.049.057-.056 0-.03-.013-.022-.067.04zm-.117.071c-.046.052-.046.056.01.015.03-.022.056-.048.056-.056 0-.03-.012-.022-.066.041zm-.181.08c-.09.058-.085.08.005.026.04-.025.07-.051.07-.057 0-.02-.003-.017-.075.032z"/>
    </g>
</svg>
