<svg xmlns="http://www.w3.org/2000/svg" width="22" height="24" viewBox="0 0 22 24">
    <g fill="#8CC84B">
        <path d="M9.909.258c.595-.34 1.37-.342 1.965 0 2.99 1.69 5.982 3.377 8.973 5.068.562.317.938.943.933 1.591v10.168c.004.675-.41 1.316-1.003 1.625l-8.941 5.045c-.607.347-1.398.32-1.986-.056-.894-.518-1.79-1.033-2.683-1.55-.183-.11-.389-.196-.518-.373.114-.154.318-.173.484-.24.373-.119.716-.31 1.058-.494.087-.06.193-.037.276.016.764.438 1.522.89 2.288 1.323.164.095.33-.03.47-.108 2.925-1.654 5.854-3.301 8.779-4.955.108-.052.168-.167.159-.286.002-3.354 0-6.709.001-10.063.012-.134-.066-.258-.187-.313-2.971-1.673-5.94-3.349-8.91-5.022-.106-.073-.245-.073-.35-.001-2.97 1.674-5.94 3.351-8.91 5.024-.12.055-.202.177-.188.312v10.064c-.01.118.054.231.162.282.792.45 1.586.896 2.379 1.344.447.24.995.383 1.488.199.434-.156.739-.6.73-1.06.005-3.335-.002-6.67.003-10.004-.01-.148.13-.27.274-.257.38-.002.762-.005 1.143.001.159-.003.268.156.249.305-.002 3.356.004 6.712-.003 10.068.001.894-.366 1.867-1.193 2.305-1.02.528-2.28.416-3.286-.09-.872-.436-1.703-.95-2.56-1.415C.412 18.403 0 17.759.004 17.085V6.917c-.006-.661.385-1.299.965-1.61L9.91.256z"/>
        <path d="M12.51 7.301c1.3-.084 2.69-.05 3.86.59.906.492 1.408 1.522 1.424 2.528-.025.136-.167.21-.296.201-.377 0-.755.005-1.132-.002-.16.006-.253-.142-.273-.283-.108-.482-.37-.959-.824-1.19-.696-.349-1.502-.331-2.26-.324-.554.03-1.15.077-1.619.403-.36.246-.47.744-.341 1.145.121.288.454.381.726.467 1.566.41 3.226.369 4.763.908.636.22 1.259.647 1.476 1.313.285.893.16 1.96-.475 2.677-.515.59-1.265.91-2.014 1.085-.995.222-2.028.228-3.039.13-.95-.11-1.94-.359-2.673-1.007-.628-.544-.934-1.393-.904-2.213.007-.138.145-.235.278-.223.38-.003.76-.004 1.139 0 .152-.01.264.12.272.263.07.46.242.94.642 1.213.772.498 1.741.463 2.625.477.732-.032 1.554-.042 2.152-.526.315-.276.408-.738.323-1.135-.092-.336-.443-.492-.744-.594-1.547-.49-3.226-.312-4.757-.865-.622-.22-1.223-.635-1.462-1.274-.333-.904-.18-2.022.521-2.715.684-.689 1.672-.954 2.611-1.049z"/>
    </g>
</svg>
