<svg xmlns="http://www.w3.org/2000/svg" width="24" height="24" viewBox="0 0 24 24">
    <g fill="none" fill-rule="evenodd">
        <path fill="#5ADAFD" fill-rule="nonzero" d="M11.636 20.938c.29.27.58.521.87.752.697.553 1.367.964 1.994 1.227-.916.233-1.875.356-2.864.356-.988 0-1.947-.123-2.864-.356.628-.263 1.298-.674 1.994-1.227.29-.23.581-.482.87-.752zm5.685-3.599c.078.344.142.68.191 1.007.144.97.141 1.825-.009 2.472-.138.598-.392 1.007-.755 1.217-.363.21-.845.225-1.431.046-.636-.194-1.378-.619-2.146-1.23-.258-.204-.517-.427-.776-.667.66-.698 1.309-1.489 1.927-2.35.88-.088 1.728-.217 2.526-.388l.473-.107zm-11.37 0c.778.187 1.609.333 2.475.437l.524.058c.515.718 1.052 1.386 1.598 1.993l.33.356c-.259.24-.518.464-.777.669-.768.61-1.51 1.035-2.145 1.229-.587.179-1.069.163-1.432-.047-.362-.209-.617-.618-.755-1.216-.15-.647-.153-1.502-.009-2.473.033-.217.072-.439.118-.665l.073-.34zM11.636 0c6.427 0 11.637 5.21 11.637 11.636 0 3.834-1.854 7.235-4.715 9.355.168-.77.174-1.714.012-2.803-.054-.366-.127-.743-.216-1.129.379-.115.742-.24 1.086-.377 2.25-.888 3.49-2.132 3.49-3.501 0-1.37-1.24-2.613-3.49-3.501-.345-.136-.707-.262-1.086-.378.09-.385.162-.762.216-1.129.355-2.393-.101-4.087-1.287-4.772-1.186-.685-2.882-.233-4.777 1.271-.29.23-.58.482-.87.752-.289-.27-.58-.522-.87-.752-1.894-1.504-3.59-1.956-4.776-1.271S4.347 5.78 4.702 8.174c.036.244.08.493.133.746l.084.382c-.38.116-.742.242-1.087.378-2.25.888-3.49 2.132-3.49 3.5 0 1.37 1.24 2.614 3.49 3.502.23.09.468.177.713.259l.373.119c-.09.385-.162.762-.216 1.128-.161 1.088-.155 2.032.012 2.803.218.16.441.315.67.461l-.34-.225c-.11-.077-.221-.156-.33-.236C1.854 18.87 0 15.47 0 11.636 0 5.21 5.21 0 11.636 0zm1.277 17.935c-.417.537-.844 1.037-1.277 1.495-.432-.457-.86-.958-1.277-1.495.421.02.848.029 1.277.029l.642-.008.635-.021zm-1.277-8.467c.713 0 1.414.027 2.096.082h.001c.388.564.763 1.157 1.119 1.774.267.463.518.929.75 1.393l.227.464c-.294.618-.62 1.239-.977 1.857-.267.462-.545.912-.83 1.346l-.289.428c-.682.055-1.384.082-2.097.082-.713 0-1.414-.027-2.097-.082-.388-.563-.762-1.157-1.119-1.775-.356-.617-.683-1.238-.977-1.856.294-.618.62-1.24.978-1.857.356-.617.73-1.21 1.119-1.775.682-.054 1.383-.081 2.096-.081zm-4.755 4.984c.194.374.399.748.613 1.12.215.373.436.736.664 1.091-.674-.092-1.322-.212-1.934-.358.135-.452.293-.914.471-1.383l.186-.47zm9.51 0c.193.473.365.94.514 1.398l.143.455c-.612.146-1.26.266-1.934.358.228-.355.45-.718.664-1.09l.315-.56.298-.56zm1.689-4.115c.337.104.66.217.967.338.912.36 1.651.79 2.137 1.244.448.418.676.843.676 1.262 0 .42-.228.844-.676 1.262-.486.454-1.225.884-2.137 1.244-.307.121-.63.234-.967.338-.274-.92-.634-1.877-1.071-2.844.35-.773.65-1.54.896-2.288l.175-.556zm-12.887 0c.219.736.493 1.496.818 2.265l.253.579c-.437.967-.798 1.923-1.071 2.844-.338-.104-.66-.217-.968-.338-.912-.36-1.651-.79-2.137-1.244-.448-.418-.676-.843-.676-1.262 0-.42.228-.844.676-1.262.486-.454 1.225-.884 2.137-1.244.205-.081.417-.158.635-.231l.333-.107zm6.443.721c-1.172 0-2.122.95-2.122 2.123 0 1.172.95 2.122 2.122 2.122 1.173 0 2.123-.95 2.123-2.122s-.95-2.123-2.123-2.123zm-3.478-1.36c-.228.355-.449.72-.664 1.091-.214.373-.419.747-.613 1.12-.257-.629-.477-1.25-.657-1.852.46-.11.938-.204 1.433-.284l.5-.074zm6.956 0c.674.093 1.322.213 1.934.359-.18.602-.4 1.223-.657 1.852-.194-.373-.398-.748-.613-1.12l-.327-.552-.337-.538zm-7.9-5.54c.224 0 .472.04.741.123.636.194 1.378.62 2.146 1.229.172.137.345.282.518.434l.258.235c-.55.581-1.092 1.227-1.616 1.925l-.311.425c-1.056.104-2.065.27-2.998.494-.08-.344-.143-.68-.192-1.007-.144-.97-.14-1.825.009-2.472.138-.598.393-1.007.755-1.217.197-.113.427-.17.69-.17zm8.845 0c.262 0 .493.056.689.17.363.209.617.618.755 1.216.15.647.153 1.502.009 2.472-.049.327-.113.663-.191 1.007-.934-.223-1.943-.39-2.999-.494-.618-.862-1.266-1.653-1.927-2.35.259-.24.518-.464.776-.669.768-.61 1.51-1.035 2.146-1.229.27-.082.517-.124.742-.124zm-4.423 2.774c.433.457.86.958 1.277 1.496-.42-.02-.847-.03-1.277-.03-.43 0-.856.01-1.277.03.313-.404.632-.786.954-1.145l.323-.351z"/>
    </g>
</svg>
